<svg xmlns="http://www.w3.org/2000/svg" xmlns:xlink="http://www.w3.org/1999/xlink" width="500" zoomAndPan="magnify" viewBox="0 0 375 374.999991" height="500" preserveAspectRatio="xMidYMid meet" version="1.0"><defs><clipPath id="787776a5b9"><path d="M 141.925781 145.78125 L 237.925781 145.78125 L 237.925781 181.761719 L 141.925781 181.761719 Z M 141.925781 145.78125 " clip-rule="nonzero"/></clipPath><clipPath id="ba84ccc86f"><path d="M 90.699219 175.40625 L 284.199219 175.40625 L 284.199219 229.40625 L 90.699219 229.40625 Z M 90.699219 175.40625 " clip-rule="nonzero"/></clipPath><clipPath id="9d992c2f71"><path d="M 107.949219 175.40625 L 267.042969 175.40625 C 271.617188 175.40625 276.003906 177.222656 279.238281 180.457031 C 282.472656 183.691406 284.292969 188.078125 284.292969 192.65625 L 284.292969 212.0625 C 284.292969 216.636719 282.472656 221.023438 279.238281 224.257812 C 276.003906 227.496094 271.617188 229.3125 267.042969 229.3125 L 107.949219 229.3125 C 103.375 229.3125 98.988281 227.496094 95.753906 224.257812 C 92.519531 221.023438 90.699219 216.636719 90.699219 212.0625 L 90.699219 192.65625 C 90.699219 188.078125 92.519531 183.691406 95.753906 180.457031 C 98.988281 177.222656 103.375 175.40625 107.949219 175.40625 Z M 107.949219 175.40625 " clip-rule="nonzero"/></clipPath><linearGradient x1="-0.00000131551" gradientTransform="matrix(4.033132, 0, 0, 4.033132, 0.00000530562, 0.00000601141)" y1="8.911" x2="63.969571" gradientUnits="userSpaceOnUse" y2="8.911" id="830e0f634e"><stop stop-opacity="1" stop-color="rgb(0%, 0%, 0%)" offset="0"/><stop stop-opacity="1" stop-color="rgb(0.00457764%, 0.0869751%, 0.253296%)" offset="0.00390625"/><stop stop-opacity="1" stop-color="rgb(0.00915527%, 0.17395%, 0.508118%)" offset="0.0078125"/><stop stop-opacity="1" stop-color="rgb(0.0137329%, 0.260925%, 0.761414%)" offset="0.0117187"/><stop stop-opacity="1" stop-color="rgb(0.0183105%, 0.3479%, 1.016235%)" offset="0.015625"/><stop stop-opacity="1" stop-color="rgb(0.0228882%, 0.434875%, 1.269531%)" offset="0.0195312"/><stop stop-opacity="1" stop-color="rgb(0.0274658%, 0.523376%, 1.524353%)" offset="0.0234375"/><stop stop-opacity="1" stop-color="rgb(0.0320435%, 0.610352%, 1.777649%)" offset="0.0273438"/><stop stop-opacity="1" stop-color="rgb(0.0366211%, 0.697327%, 2.032471%)" offset="0.03125"/><stop stop-opacity="1" stop-color="rgb(0.0411987%, 0.784302%, 2.285767%)" offset="0.0351563"/><stop stop-opacity="1" stop-color="rgb(0.0457764%, 0.871277%, 2.540588%)" offset="0.0390625"/><stop stop-opacity="1" stop-color="rgb(0.050354%, 0.958252%, 2.793884%)" offset="0.0429688"/><stop stop-opacity="1" stop-color="rgb(0.0549316%, 1.046753%, 3.048706%)" offset="0.046875"/><stop stop-opacity="1" stop-color="rgb(0.0595093%, 1.133728%, 3.303528%)" offset="0.0507812"/><stop stop-opacity="1" stop-color="rgb(0.0640869%, 1.220703%, 3.55835%)" offset="0.0546875"/><stop stop-opacity="1" stop-color="rgb(0.0686646%, 1.307678%, 3.811646%)" offset="0.0585938"/><stop stop-opacity="1" stop-color="rgb(0.0732422%, 1.396179%, 4.066467%)" offset="0.0625"/><stop stop-opacity="1" stop-color="rgb(0.0778198%, 1.483154%, 4.319763%)" offset="0.0664063"/><stop stop-opacity="1" stop-color="rgb(0.0823975%, 1.570129%, 4.574585%)" offset="0.0703125"/><stop stop-opacity="1" stop-color="rgb(0.0869751%, 1.657104%, 4.827881%)" offset="0.0742188"/><stop stop-opacity="1" stop-color="rgb(0.0915527%, 1.74408%, 5.082703%)" offset="0.078125"/><stop stop-opacity="1" stop-color="rgb(0.0961304%, 1.831055%, 5.335999%)" offset="0.0820312"/><stop stop-opacity="1" stop-color="rgb(0.100708%, 1.919556%, 5.59082%)" offset="0.0859375"/><stop stop-opacity="1" stop-color="rgb(0.105286%, 2.006531%, 5.844116%)" offset="0.0898438"/><stop stop-opacity="1" stop-color="rgb(0.109863%, 2.093506%, 6.098938%)" offset="0.09375"/><stop stop-opacity="1" stop-color="rgb(0.114441%, 2.180481%, 6.352234%)" offset="0.0976562"/><stop stop-opacity="1" stop-color="rgb(0.119019%, 2.267456%, 6.607056%)" offset="0.101562"/><stop stop-opacity="1" stop-color="rgb(0.123596%, 2.354431%, 6.861877%)" offset="0.105469"/><stop stop-opacity="1" stop-color="rgb(0.128174%, 2.442932%, 7.116699%)" offset="0.109375"/><stop stop-opacity="1" stop-color="rgb(0.132751%, 2.529907%, 7.369995%)" offset="0.113281"/><stop stop-opacity="1" stop-color="rgb(0.137329%, 2.616882%, 7.624817%)" offset="0.117188"/><stop stop-opacity="1" stop-color="rgb(0.141907%, 2.703857%, 7.878113%)" offset="0.121094"/><stop stop-opacity="1" stop-color="rgb(0.146484%, 2.792358%, 8.132935%)" offset="0.125"/><stop stop-opacity="1" stop-color="rgb(0.151062%, 2.879333%, 8.38623%)" offset="0.128906"/><stop stop-opacity="1" stop-color="rgb(0.15564%, 2.966309%, 8.641052%)" offset="0.132813"/><stop stop-opacity="1" stop-color="rgb(0.160217%, 3.053284%, 8.894348%)" offset="0.136719"/><stop stop-opacity="1" stop-color="rgb(0.164795%, 3.140259%, 9.14917%)" offset="0.140625"/><stop stop-opacity="1" stop-color="rgb(0.169373%, 3.227234%, 9.402466%)" offset="0.144531"/><stop stop-opacity="1" stop-color="rgb(0.17395%, 3.315735%, 9.657288%)" offset="0.148438"/><stop stop-opacity="1" stop-color="rgb(0.178528%, 3.40271%, 9.912109%)" offset="0.152344"/><stop stop-opacity="1" stop-color="rgb(0.183105%, 3.489685%, 10.166931%)" offset="0.15625"/><stop stop-opacity="1" stop-color="rgb(0.187683%, 3.57666%, 10.420227%)" offset="0.160156"/><stop stop-opacity="1" stop-color="rgb(0.192261%, 3.663635%, 10.675049%)" offset="0.164062"/><stop stop-opacity="1" stop-color="rgb(0.196838%, 3.75061%, 10.928345%)" offset="0.167969"/><stop stop-opacity="1" stop-color="rgb(0.201416%, 3.839111%, 11.183167%)" offset="0.171875"/><stop stop-opacity="1" stop-color="rgb(0.205994%, 3.926086%, 11.436462%)" offset="0.175781"/><stop stop-opacity="1" stop-color="rgb(0.210571%, 4.013062%, 11.691284%)" offset="0.179688"/><stop stop-opacity="1" stop-color="rgb(0.215149%, 4.100037%, 11.94458%)" offset="0.183594"/><stop stop-opacity="1" stop-color="rgb(0.219727%, 4.188538%, 12.199402%)" offset="0.1875"/><stop stop-opacity="1" stop-color="rgb(0.224304%, 4.275513%, 12.452698%)" offset="0.191406"/><stop stop-opacity="1" stop-color="rgb(0.228882%, 4.362488%, 12.70752%)" offset="0.195312"/><stop stop-opacity="1" stop-color="rgb(0.233459%, 4.449463%, 12.960815%)" offset="0.199219"/><stop stop-opacity="1" stop-color="rgb(0.239563%, 4.536438%, 13.215637%)" offset="0.203125"/><stop stop-opacity="1" stop-color="rgb(0.244141%, 4.623413%, 13.470459%)" offset="0.207031"/><stop stop-opacity="1" stop-color="rgb(0.248718%, 4.711914%, 13.725281%)" offset="0.210937"/><stop stop-opacity="1" stop-color="rgb(0.253296%, 4.798889%, 13.978577%)" offset="0.214844"/><stop stop-opacity="1" stop-color="rgb(0.257874%, 4.885864%, 14.233398%)" offset="0.21875"/><stop stop-opacity="1" stop-color="rgb(0.262451%, 4.972839%, 14.486694%)" offset="0.222656"/><stop stop-opacity="1" stop-color="rgb(0.267029%, 5.059814%, 14.741516%)" offset="0.226563"/><stop stop-opacity="1" stop-color="rgb(0.271606%, 5.14679%, 14.994812%)" offset="0.230469"/><stop stop-opacity="1" stop-color="rgb(0.276184%, 5.235291%, 15.249634%)" offset="0.234375"/><stop stop-opacity="1" stop-color="rgb(0.280762%, 5.322266%, 15.50293%)" offset="0.238281"/><stop stop-opacity="1" stop-color="rgb(0.285339%, 5.409241%, 15.757751%)" offset="0.242188"/><stop stop-opacity="1" stop-color="rgb(0.289917%, 5.496216%, 16.011047%)" offset="0.246094"/><stop stop-opacity="1" stop-color="rgb(0.294495%, 5.584717%, 16.265869%)" offset="0.25"/><stop stop-opacity="1" stop-color="rgb(0.299072%, 5.671692%, 16.520691%)" offset="0.253906"/><stop stop-opacity="1" stop-color="rgb(0.30365%, 5.758667%, 16.775513%)" offset="0.257812"/><stop stop-opacity="1" stop-color="rgb(0.308228%, 5.845642%, 17.028809%)" offset="0.261719"/><stop stop-opacity="1" stop-color="rgb(0.312805%, 5.932617%, 17.28363%)" offset="0.265625"/><stop stop-opacity="1" stop-color="rgb(0.317383%, 6.019592%, 17.536926%)" offset="0.269531"/><stop stop-opacity="1" stop-color="rgb(0.32196%, 6.108093%, 17.791748%)" offset="0.273438"/><stop stop-opacity="1" stop-color="rgb(0.326538%, 6.195068%, 18.045044%)" offset="0.277344"/><stop stop-opacity="1" stop-color="rgb(0.331116%, 6.282043%, 18.299866%)" offset="0.28125"/><stop stop-opacity="1" stop-color="rgb(0.335693%, 6.369019%, 18.553162%)" offset="0.285156"/><stop stop-opacity="1" stop-color="rgb(0.340271%, 6.455994%, 18.807983%)" offset="0.289063"/><stop stop-opacity="1" stop-color="rgb(0.344849%, 6.542969%, 19.061279%)" offset="0.292969"/><stop stop-opacity="1" stop-color="rgb(0.349426%, 6.63147%, 19.316101%)" offset="0.296875"/><stop stop-opacity="1" stop-color="rgb(0.354004%, 6.718445%, 19.569397%)" offset="0.300781"/><stop stop-opacity="1" stop-color="rgb(0.358582%, 6.80542%, 19.824219%)" offset="0.304688"/><stop stop-opacity="1" stop-color="rgb(0.363159%, 6.892395%, 20.079041%)" offset="0.308594"/><stop stop-opacity="1" stop-color="rgb(0.367737%, 6.980896%, 20.333862%)" offset="0.3125"/><stop stop-opacity="1" stop-color="rgb(0.372314%, 7.067871%, 20.587158%)" offset="0.316406"/><stop stop-opacity="1" stop-color="rgb(0.376892%, 7.154846%, 20.84198%)" offset="0.320312"/><stop stop-opacity="1" stop-color="rgb(0.38147%, 7.241821%, 21.095276%)" offset="0.324219"/><stop stop-opacity="1" stop-color="rgb(0.386047%, 7.328796%, 21.350098%)" offset="0.328125"/><stop stop-opacity="1" stop-color="rgb(0.390625%, 7.415771%, 21.603394%)" offset="0.332031"/><stop stop-opacity="1" stop-color="rgb(0.395203%, 7.504272%, 21.858215%)" offset="0.335938"/><stop stop-opacity="1" stop-color="rgb(0.39978%, 7.591248%, 22.111511%)" offset="0.339844"/><stop stop-opacity="1" stop-color="rgb(0.404358%, 7.678223%, 22.366333%)" offset="0.34375"/><stop stop-opacity="1" stop-color="rgb(0.408936%, 7.765198%, 22.619629%)" offset="0.347656"/><stop stop-opacity="1" stop-color="rgb(0.413513%, 7.852173%, 22.874451%)" offset="0.351562"/><stop stop-opacity="1" stop-color="rgb(0.418091%, 7.939148%, 23.129272%)" offset="0.355469"/><stop stop-opacity="1" stop-color="rgb(0.422668%, 8.027649%, 23.384094%)" offset="0.359375"/><stop stop-opacity="1" stop-color="rgb(0.427246%, 8.114624%, 23.63739%)" offset="0.363281"/><stop stop-opacity="1" stop-color="rgb(0.431824%, 8.201599%, 23.892212%)" offset="0.367188"/><stop stop-opacity="1" stop-color="rgb(0.436401%, 8.288574%, 24.145508%)" offset="0.371094"/><stop stop-opacity="1" stop-color="rgb(0.440979%, 8.377075%, 24.40033%)" offset="0.375"/><stop stop-opacity="1" stop-color="rgb(0.445557%, 8.46405%, 24.653625%)" offset="0.378906"/><stop stop-opacity="1" stop-color="rgb(0.450134%, 8.551025%, 24.908447%)" offset="0.382812"/><stop stop-opacity="1" stop-color="rgb(0.454712%, 8.638%, 25.161743%)" offset="0.386719"/><stop stop-opacity="1" stop-color="rgb(0.45929%, 8.724976%, 25.416565%)" offset="0.390625"/><stop stop-opacity="1" stop-color="rgb(0.463867%, 8.811951%, 25.669861%)" offset="0.394531"/><stop stop-opacity="1" stop-color="rgb(0.468445%, 8.900452%, 25.924683%)" offset="0.398437"/><stop stop-opacity="1" stop-color="rgb(0.473022%, 8.987427%, 26.177979%)" offset="0.402344"/><stop stop-opacity="1" stop-color="rgb(0.479126%, 9.074402%, 26.4328%)" offset="0.40625"/><stop stop-opacity="1" stop-color="rgb(0.483704%, 9.161377%, 26.687622%)" offset="0.410156"/><stop stop-opacity="1" stop-color="rgb(0.488281%, 9.249878%, 26.942444%)" offset="0.414062"/><stop stop-opacity="1" stop-color="rgb(0.492859%, 9.336853%, 27.19574%)" offset="0.417969"/><stop stop-opacity="1" stop-color="rgb(0.497437%, 9.423828%, 27.450562%)" offset="0.421875"/><stop stop-opacity="1" stop-color="rgb(0.502014%, 9.510803%, 27.703857%)" offset="0.425781"/><stop stop-opacity="1" stop-color="rgb(0.506592%, 9.597778%, 27.958679%)" offset="0.429688"/><stop stop-opacity="1" stop-color="rgb(0.511169%, 9.684753%, 28.211975%)" offset="0.433594"/><stop stop-opacity="1" stop-color="rgb(0.515747%, 9.773254%, 28.466797%)" offset="0.4375"/><stop stop-opacity="1" stop-color="rgb(0.520325%, 9.860229%, 28.720093%)" offset="0.441406"/><stop stop-opacity="1" stop-color="rgb(0.524902%, 9.947205%, 28.974915%)" offset="0.445312"/><stop stop-opacity="1" stop-color="rgb(0.52948%, 10.03418%, 29.22821%)" offset="0.449219"/><stop stop-opacity="1" stop-color="rgb(0.534058%, 10.121155%, 29.483032%)" offset="0.453125"/><stop stop-opacity="1" stop-color="rgb(0.538635%, 10.20813%, 29.737854%)" offset="0.457031"/><stop stop-opacity="1" stop-color="rgb(0.543213%, 10.296631%, 29.992676%)" offset="0.460938"/><stop stop-opacity="1" stop-color="rgb(0.547791%, 10.383606%, 30.245972%)" offset="0.464844"/><stop stop-opacity="1" stop-color="rgb(0.552368%, 10.470581%, 30.500793%)" offset="0.46875"/><stop stop-opacity="1" stop-color="rgb(0.556946%, 10.557556%, 30.754089%)" offset="0.472656"/><stop stop-opacity="1" stop-color="rgb(0.561523%, 10.646057%, 31.008911%)" offset="0.476562"/><stop stop-opacity="1" stop-color="rgb(0.566101%, 10.733032%, 31.262207%)" offset="0.480469"/><stop stop-opacity="1" stop-color="rgb(0.570679%, 10.820007%, 31.517029%)" offset="0.484375"/><stop stop-opacity="1" stop-color="rgb(0.575256%, 10.906982%, 31.770325%)" offset="0.488281"/><stop stop-opacity="1" stop-color="rgb(0.579834%, 10.993958%, 32.025146%)" offset="0.492188"/><stop stop-opacity="1" stop-color="rgb(0.584412%, 11.080933%, 32.278442%)" offset="0.496094"/><stop stop-opacity="1" stop-color="rgb(0.588989%, 11.169434%, 32.533264%)" offset="0.5"/><stop stop-opacity="1" stop-color="rgb(0.593567%, 11.256409%, 32.78656%)" offset="0.503906"/><stop stop-opacity="1" stop-color="rgb(0.598145%, 11.343384%, 33.041382%)" offset="0.507812"/><stop stop-opacity="1" stop-color="rgb(0.602722%, 11.430359%, 33.296204%)" offset="0.511719"/><stop stop-opacity="1" stop-color="rgb(0.6073%, 11.517334%, 33.551025%)" offset="0.515625"/><stop stop-opacity="1" stop-color="rgb(0.611877%, 11.604309%, 33.804321%)" offset="0.519531"/><stop stop-opacity="1" stop-color="rgb(0.616455%, 11.69281%, 34.059143%)" offset="0.523438"/><stop stop-opacity="1" stop-color="rgb(0.621033%, 11.779785%, 34.312439%)" offset="0.527344"/><stop stop-opacity="1" stop-color="rgb(0.62561%, 11.86676%, 34.567261%)" offset="0.53125"/><stop stop-opacity="1" stop-color="rgb(0.630188%, 11.953735%, 34.820557%)" offset="0.535156"/><stop stop-opacity="1" stop-color="rgb(0.634766%, 12.042236%, 35.075378%)" offset="0.539062"/><stop stop-opacity="1" stop-color="rgb(0.639343%, 12.129211%, 35.328674%)" offset="0.542969"/><stop stop-opacity="1" stop-color="rgb(0.643921%, 12.216187%, 35.583496%)" offset="0.546875"/><stop stop-opacity="1" stop-color="rgb(0.648499%, 12.303162%, 35.836792%)" offset="0.550781"/><stop stop-opacity="1" stop-color="rgb(0.653076%, 12.390137%, 36.091614%)" offset="0.554688"/><stop stop-opacity="1" stop-color="rgb(0.657654%, 12.477112%, 36.346436%)" offset="0.558594"/><stop stop-opacity="1" stop-color="rgb(0.662231%, 12.565613%, 36.601257%)" offset="0.5625"/><stop stop-opacity="1" stop-color="rgb(0.666809%, 12.652588%, 36.854553%)" offset="0.566406"/><stop stop-opacity="1" stop-color="rgb(0.671387%, 12.739563%, 37.109375%)" offset="0.570312"/><stop stop-opacity="1" stop-color="rgb(0.675964%, 12.826538%, 37.362671%)" offset="0.574219"/><stop stop-opacity="1" stop-color="rgb(0.680542%, 12.913513%, 37.617493%)" offset="0.578125"/><stop stop-opacity="1" stop-color="rgb(0.68512%, 13.000488%, 37.870789%)" offset="0.582031"/><stop stop-opacity="1" stop-color="rgb(0.689697%, 13.088989%, 38.12561%)" offset="0.585938"/><stop stop-opacity="1" stop-color="rgb(0.694275%, 13.175964%, 38.378906%)" offset="0.589844"/><stop stop-opacity="1" stop-color="rgb(0.698853%, 13.262939%, 38.633728%)" offset="0.59375"/><stop stop-opacity="1" stop-color="rgb(0.70343%, 13.349915%, 38.887024%)" offset="0.597656"/><stop stop-opacity="1" stop-color="rgb(0.708008%, 13.438416%, 39.141846%)" offset="0.601562"/><stop stop-opacity="1" stop-color="rgb(0.712585%, 13.525391%, 39.395142%)" offset="0.605469"/><stop stop-opacity="1" stop-color="rgb(0.718689%, 13.612366%, 39.649963%)" offset="0.609375"/><stop stop-opacity="1" stop-color="rgb(0.723267%, 13.699341%, 39.904785%)" offset="0.613281"/><stop stop-opacity="1" stop-color="rgb(0.727844%, 13.786316%, 40.159607%)" offset="0.617188"/><stop stop-opacity="1" stop-color="rgb(0.732422%, 13.873291%, 40.412903%)" offset="0.621094"/><stop stop-opacity="1" stop-color="rgb(0.737%, 13.961792%, 40.667725%)" offset="0.625"/><stop stop-opacity="1" stop-color="rgb(0.741577%, 14.048767%, 40.921021%)" offset="0.628906"/><stop stop-opacity="1" stop-color="rgb(0.746155%, 14.135742%, 41.175842%)" offset="0.632812"/><stop stop-opacity="1" stop-color="rgb(0.750732%, 14.222717%, 41.429138%)" offset="0.636719"/><stop stop-opacity="1" stop-color="rgb(0.75531%, 14.309692%, 41.68396%)" offset="0.640625"/><stop stop-opacity="1" stop-color="rgb(0.759888%, 14.396667%, 41.937256%)" offset="0.644531"/><stop stop-opacity="1" stop-color="rgb(0.764465%, 14.485168%, 42.192078%)" offset="0.648438"/><stop stop-opacity="1" stop-color="rgb(0.769043%, 14.572144%, 42.445374%)" offset="0.652344"/><stop stop-opacity="1" stop-color="rgb(0.773621%, 14.659119%, 42.700195%)" offset="0.65625"/><stop stop-opacity="1" stop-color="rgb(0.778198%, 14.746094%, 42.955017%)" offset="0.660156"/><stop stop-opacity="1" stop-color="rgb(0.782776%, 14.834595%, 43.209839%)" offset="0.664062"/><stop stop-opacity="1" stop-color="rgb(0.787354%, 14.92157%, 43.463135%)" offset="0.667969"/><stop stop-opacity="1" stop-color="rgb(0.791931%, 15.008545%, 43.717957%)" offset="0.671875"/><stop stop-opacity="1" stop-color="rgb(0.796509%, 15.09552%, 43.971252%)" offset="0.675781"/><stop stop-opacity="1" stop-color="rgb(0.801086%, 15.182495%, 44.226074%)" offset="0.679688"/><stop stop-opacity="1" stop-color="rgb(0.805664%, 15.26947%, 44.47937%)" offset="0.683594"/><stop stop-opacity="1" stop-color="rgb(0.810242%, 15.357971%, 44.734192%)" offset="0.6875"/><stop stop-opacity="1" stop-color="rgb(0.814819%, 15.444946%, 44.987488%)" offset="0.691406"/><stop stop-opacity="1" stop-color="rgb(0.819397%, 15.531921%, 45.24231%)" offset="0.695312"/><stop stop-opacity="1" stop-color="rgb(0.823975%, 15.618896%, 45.495605%)" offset="0.699219"/><stop stop-opacity="1" stop-color="rgb(0.828552%, 15.705872%, 45.750427%)" offset="0.703125"/><stop stop-opacity="1" stop-color="rgb(0.83313%, 15.792847%, 46.003723%)" offset="0.707031"/><stop stop-opacity="1" stop-color="rgb(0.837708%, 15.881348%, 46.258545%)" offset="0.710938"/><stop stop-opacity="1" stop-color="rgb(0.842285%, 15.968323%, 46.513367%)" offset="0.714844"/><stop stop-opacity="1" stop-color="rgb(0.846863%, 16.055298%, 46.768188%)" offset="0.71875"/><stop stop-opacity="1" stop-color="rgb(0.85144%, 16.142273%, 47.021484%)" offset="0.722656"/><stop stop-opacity="1" stop-color="rgb(0.856018%, 16.230774%, 47.276306%)" offset="0.726562"/><stop stop-opacity="1" stop-color="rgb(0.860596%, 16.317749%, 47.529602%)" offset="0.730469"/><stop stop-opacity="1" stop-color="rgb(0.865173%, 16.404724%, 47.784424%)" offset="0.734375"/><stop stop-opacity="1" stop-color="rgb(0.869751%, 16.491699%, 48.03772%)" offset="0.738281"/><stop stop-opacity="1" stop-color="rgb(0.874329%, 16.578674%, 48.292542%)" offset="0.742188"/><stop stop-opacity="1" stop-color="rgb(0.878906%, 16.665649%, 48.545837%)" offset="0.746094"/><stop stop-opacity="1" stop-color="rgb(0.883484%, 16.75415%, 48.800659%)" offset="0.75"/><stop stop-opacity="1" stop-color="rgb(0.888062%, 16.841125%, 49.053955%)" offset="0.753906"/><stop stop-opacity="1" stop-color="rgb(0.892639%, 16.928101%, 49.308777%)" offset="0.757812"/><stop stop-opacity="1" stop-color="rgb(0.897217%, 17.015076%, 49.563599%)" offset="0.761719"/><stop stop-opacity="1" stop-color="rgb(0.901794%, 17.103577%, 49.81842%)" offset="0.765625"/><stop stop-opacity="1" stop-color="rgb(0.906372%, 17.190552%, 50.071716%)" offset="0.769531"/><stop stop-opacity="1" stop-color="rgb(0.91095%, 17.277527%, 50.326538%)" offset="0.773438"/><stop stop-opacity="1" stop-color="rgb(0.915527%, 17.364502%, 50.579834%)" offset="0.777344"/><stop stop-opacity="1" stop-color="rgb(0.920105%, 17.451477%, 50.834656%)" offset="0.78125"/><stop stop-opacity="1" stop-color="rgb(0.924683%, 17.538452%, 51.087952%)" offset="0.785156"/><stop stop-opacity="1" stop-color="rgb(0.92926%, 17.626953%, 51.342773%)" offset="0.789062"/><stop stop-opacity="1" stop-color="rgb(0.933838%, 17.713928%, 51.596069%)" offset="0.792969"/><stop stop-opacity="1" stop-color="rgb(0.938416%, 17.800903%, 51.850891%)" offset="0.796875"/><stop stop-opacity="1" stop-color="rgb(0.942993%, 17.887878%, 52.104187%)" offset="0.800781"/><stop stop-opacity="1" stop-color="rgb(0.947571%, 17.974854%, 52.359009%)" offset="0.804688"/><stop stop-opacity="1" stop-color="rgb(0.952148%, 18.061829%, 52.612305%)" offset="0.808594"/><stop stop-opacity="1" stop-color="rgb(0.958252%, 18.15033%, 52.867126%)" offset="0.8125"/><stop stop-opacity="1" stop-color="rgb(0.96283%, 18.237305%, 53.121948%)" offset="0.816406"/><stop stop-opacity="1" stop-color="rgb(0.967407%, 18.32428%, 53.37677%)" offset="0.820312"/><stop stop-opacity="1" stop-color="rgb(0.971985%, 18.411255%, 53.630066%)" offset="0.824219"/><stop stop-opacity="1" stop-color="rgb(0.976562%, 18.499756%, 53.884888%)" offset="0.828125"/><stop stop-opacity="1" stop-color="rgb(0.98114%, 18.586731%, 54.138184%)" offset="0.832031"/><stop stop-opacity="1" stop-color="rgb(0.985718%, 18.673706%, 54.393005%)" offset="0.835937"/><stop stop-opacity="1" stop-color="rgb(0.990295%, 18.760681%, 54.646301%)" offset="0.839844"/><stop stop-opacity="1" stop-color="rgb(0.994873%, 18.847656%, 54.901123%)" offset="0.84375"/><stop stop-opacity="1" stop-color="rgb(0.999451%, 18.934631%, 55.154419%)" offset="0.847656"/><stop stop-opacity="1" stop-color="rgb(1.004028%, 19.023132%, 55.409241%)" offset="0.851562"/><stop stop-opacity="1" stop-color="rgb(1.008606%, 19.110107%, 55.662537%)" offset="0.855469"/><stop stop-opacity="1" stop-color="rgb(1.013184%, 19.197083%, 55.917358%)" offset="0.859375"/><stop stop-opacity="1" stop-color="rgb(1.017761%, 19.284058%, 56.17218%)" offset="0.863281"/><stop stop-opacity="1" stop-color="rgb(1.022339%, 19.371033%, 56.427002%)" offset="0.867187"/><stop stop-opacity="1" stop-color="rgb(1.026917%, 19.458008%, 56.680298%)" offset="0.871094"/><stop stop-opacity="1" stop-color="rgb(1.031494%, 19.546509%, 56.93512%)" offset="0.875"/><stop stop-opacity="1" stop-color="rgb(1.036072%, 19.633484%, 57.188416%)" offset="0.878906"/><stop stop-opacity="1" stop-color="rgb(1.040649%, 19.720459%, 57.443237%)" offset="0.882812"/><stop stop-opacity="1" stop-color="rgb(1.045227%, 19.807434%, 57.696533%)" offset="0.886719"/><stop stop-opacity="1" stop-color="rgb(1.049805%, 19.895935%, 57.951355%)" offset="0.890625"/><stop stop-opacity="1" stop-color="rgb(1.054382%, 19.98291%, 58.204651%)" offset="0.894531"/><stop stop-opacity="1" stop-color="rgb(1.05896%, 20.069885%, 58.459473%)" offset="0.898438"/><stop stop-opacity="1" stop-color="rgb(1.063538%, 20.15686%, 58.712769%)" offset="0.902344"/><stop stop-opacity="1" stop-color="rgb(1.068115%, 20.243835%, 58.96759%)" offset="0.90625"/><stop stop-opacity="1" stop-color="rgb(1.072693%, 20.330811%, 59.220886%)" offset="0.910156"/><stop stop-opacity="1" stop-color="rgb(1.077271%, 20.419312%, 59.475708%)" offset="0.914062"/><stop stop-opacity="1" stop-color="rgb(1.081848%, 20.506287%, 59.73053%)" offset="0.917969"/><stop stop-opacity="1" stop-color="rgb(1.086426%, 20.593262%, 59.985352%)" offset="0.921875"/><stop stop-opacity="1" stop-color="rgb(1.091003%, 20.680237%, 60.238647%)" offset="0.925781"/><stop stop-opacity="1" stop-color="rgb(1.095581%, 20.767212%, 60.493469%)" offset="0.929688"/><stop stop-opacity="1" stop-color="rgb(1.100159%, 20.854187%, 60.746765%)" offset="0.933594"/><stop stop-opacity="1" stop-color="rgb(1.104736%, 20.942688%, 61.001587%)" offset="0.9375"/><stop stop-opacity="1" stop-color="rgb(1.109314%, 21.029663%, 61.254883%)" offset="0.941406"/><stop stop-opacity="1" stop-color="rgb(1.113892%, 21.116638%, 61.509705%)" offset="0.945312"/><stop stop-opacity="1" stop-color="rgb(1.118469%, 21.203613%, 61.763%)" offset="0.949219"/><stop stop-opacity="1" stop-color="rgb(1.123047%, 21.292114%, 62.017822%)" offset="0.953125"/><stop stop-opacity="1" stop-color="rgb(1.127625%, 21.379089%, 62.271118%)" offset="0.957031"/><stop stop-opacity="1" stop-color="rgb(1.132202%, 21.466064%, 62.52594%)" offset="0.960938"/><stop stop-opacity="1" stop-color="rgb(1.13678%, 21.55304%, 62.780762%)" offset="0.964844"/><stop stop-opacity="1" stop-color="rgb(1.141357%, 21.640015%, 63.035583%)" offset="0.96875"/><stop stop-opacity="1" stop-color="rgb(1.145935%, 21.72699%, 63.288879%)" offset="0.972656"/><stop stop-opacity="1" stop-color="rgb(1.150513%, 21.815491%, 63.543701%)" offset="0.976562"/><stop stop-opacity="1" stop-color="rgb(1.15509%, 21.902466%, 63.796997%)" offset="0.980469"/><stop stop-opacity="1" stop-color="rgb(1.159668%, 21.989441%, 64.051819%)" offset="0.984375"/><stop stop-opacity="1" stop-color="rgb(1.164246%, 22.076416%, 64.305115%)" offset="0.988281"/><stop stop-opacity="1" stop-color="rgb(1.168823%, 22.163391%, 64.559937%)" offset="0.992188"/><stop stop-opacity="1" stop-color="rgb(1.173401%, 22.250366%, 64.813232%)" offset="0.996094"/><stop stop-opacity="1" stop-color="rgb(1.177979%, 22.338867%, 65.068054%)" offset="1"/></linearGradient><clipPath id="994da88437"><path d="M 132.847656 181.769531 L 174.027344 181.769531 L 174.027344 222.949219 L 132.847656 222.949219 Z M 132.847656 181.769531 " clip-rule="nonzero"/></clipPath><clipPath id="70cb362ab9"><path d="M 153.4375 181.769531 L 157.042969 198.757812 L 174.027344 202.359375 L 157.042969 205.964844 L 153.4375 222.949219 L 149.835938 205.964844 L 132.847656 202.359375 L 149.835938 198.757812 Z M 153.4375 181.769531 " clip-rule="nonzero"/></clipPath><clipPath id="c61565676f"><path d="M 0.847656 0.769531 L 42.027344 0.769531 L 42.027344 41.949219 L 0.847656 41.949219 Z M 0.847656 0.769531 " clip-rule="nonzero"/></clipPath><clipPath id="0ec266a085"><path d="M 21.4375 0.769531 L 25.042969 17.757812 L 42.027344 21.359375 L 25.042969 24.964844 L 21.4375 41.949219 L 17.835938 24.964844 L 0.847656 21.359375 L 17.835938 17.757812 Z M 21.4375 0.769531 " clip-rule="nonzero"/></clipPath><clipPath id="ab94b186b8"><rect x="0" width="43" y="0" height="42"/></clipPath><clipPath id="10bad827bc"><path d="M 202.683594 181.769531 L 243.863281 181.769531 L 243.863281 222.949219 L 202.683594 222.949219 Z M 202.683594 181.769531 " clip-rule="nonzero"/></clipPath><clipPath id="7de9bed2fe"><path d="M 223.273438 181.769531 L 226.878906 198.757812 L 243.863281 202.359375 L 226.878906 205.964844 L 223.273438 222.949219 L 219.671875 205.964844 L 202.683594 202.359375 L 219.671875 198.757812 Z M 223.273438 181.769531 " clip-rule="nonzero"/></clipPath><clipPath id="5f693e00c8"><path d="M 0.683594 0.769531 L 41.863281 0.769531 L 41.863281 41.949219 L 0.683594 41.949219 Z M 0.683594 0.769531 " clip-rule="nonzero"/></clipPath><clipPath id="78252eef97"><path d="M 21.273438 0.769531 L 24.878906 17.757812 L 41.863281 21.359375 L 24.878906 24.964844 L 21.273438 41.949219 L 17.671875 24.964844 L 0.683594 21.359375 L 17.671875 17.757812 Z M 21.273438 0.769531 " clip-rule="nonzero"/></clipPath><clipPath id="96e7173e6e"><rect x="0" width="42" y="0" height="42"/></clipPath></defs><rect x="-37.5" width="450" fill="#ffffff" y="-37.499999" height="449.999989" fill-opacity="1"/><rect x="-37.5" width="450" fill="#ffffff" y="-37.499999" height="449.999989" fill-opacity="1"/><g clip-path="url(#787776a5b9)"><path fill="#0339a6" d="M 203.027344 149.832031 C 203.027344 151.636719 204.1875 153.175781 205.800781 153.742188 L 205.800781 166.097656 L 200.253906 171.644531 L 200.253906 180.917969 L 194.304688 180.917969 L 194.304688 160.574219 C 196.054688 160.089844 197.34375 158.484375 197.34375 156.582031 C 197.34375 154.296875 195.484375 152.4375 193.199219 152.4375 C 190.914062 152.4375 189.054688 154.296875 189.054688 156.582031 C 189.054688 158.484375 190.34375 160.089844 192.09375 160.574219 L 192.09375 180.917969 L 185.15625 180.917969 L 185.15625 160.574219 C 186.90625 160.089844 188.195312 158.484375 188.195312 156.582031 C 188.195312 154.296875 186.335938 152.4375 184.050781 152.4375 C 181.765625 152.4375 179.90625 154.296875 179.90625 156.582031 C 179.90625 158.484375 181.195312 160.089844 182.945312 160.574219 L 182.945312 180.917969 L 176.996094 180.917969 L 176.996094 171.644531 L 171.453125 166.097656 L 171.453125 153.828125 C 173.203125 153.34375 174.492188 151.734375 174.492188 149.835938 C 174.492188 147.546875 172.632812 145.6875 170.347656 145.6875 C 168.0625 145.6875 166.203125 147.546875 166.203125 149.835938 C 166.203125 151.734375 167.492188 153.34375 169.242188 153.828125 L 169.242188 167.015625 L 174.785156 172.558594 L 174.785156 180.917969 L 171.363281 180.917969 C 168.921875 180.917969 166.9375 182.90625 166.9375 185.347656 L 166.9375 192.300781 L 160.308594 192.300781 L 152.042969 184.035156 L 152.042969 169.5 C 153.792969 169.015625 155.082031 167.410156 155.082031 165.507812 C 155.082031 163.222656 153.222656 161.363281 150.9375 161.363281 C 148.652344 161.363281 146.792969 163.222656 146.792969 165.507812 C 146.792969 167.410156 148.082031 169.015625 149.832031 169.5 L 149.832031 184.949219 L 159.394531 194.511719 L 166.9375 194.511719 L 166.9375 201.464844 L 150.484375 201.464844 C 149.992188 199.722656 148.390625 198.445312 146.496094 198.445312 C 144.210938 198.445312 142.351562 200.304688 142.351562 202.589844 C 142.351562 204.875 144.210938 206.734375 146.496094 206.734375 C 148.40625 206.734375 150.015625 205.433594 150.496094 203.675781 L 166.9375 203.675781 L 166.9375 207.933594 L 156.160156 207.933594 C 151.640625 207.933594 147.394531 209.691406 144.199219 212.886719 C 141.003906 216.082031 139.242188 220.332031 139.242188 224.851562 C 139.242188 231.734375 143.398438 237.84375 149.59375 240.449219 C 149.664062 240.5 149.742188 240.542969 149.824219 240.574219 C 150.226562 240.730469 150.636719 240.871094 151.046875 240.992188 C 151.335938 249.152344 158.0625 255.699219 166.292969 255.699219 C 167.171875 255.699219 168.050781 255.625 168.910156 255.476562 C 171.125 258.710938 174.085938 261.414062 177.507812 263.324219 C 181.269531 265.421875 185.542969 266.53125 189.875 266.53125 C 195.207031 266.53125 200.289062 264.90625 204.609375 261.824219 C 205.953125 262.125 207.332031 262.277344 208.71875 262.277344 C 213.371094 262.277344 217.832031 260.566406 221.28125 257.457031 C 224.515625 254.539062 226.625 250.621094 227.277344 246.347656 C 227.414062 246.261719 227.527344 246.148438 227.613281 246.015625 C 230.570312 244.359375 233.074219 241.980469 234.890625 239.101562 C 236.929688 235.859375 238.011719 232.117188 238.011719 228.269531 C 238.011719 222.835938 235.894531 217.730469 232.054688 213.890625 C 228.214844 210.046875 223.109375 207.933594 217.675781 207.933594 L 210.316406 207.933594 L 210.316406 203.675781 L 226.757812 203.675781 C 227.238281 205.4375 228.847656 206.734375 230.757812 206.734375 C 233.042969 206.734375 234.902344 204.875 234.902344 202.589844 C 234.902344 200.304688 233.042969 198.445312 230.757812 198.445312 C 228.863281 198.445312 227.261719 199.722656 226.769531 201.464844 L 210.316406 201.464844 L 210.316406 194.511719 L 217.859375 194.511719 L 227.421875 184.949219 L 227.421875 169.832031 C 229.171875 169.34375 230.460938 167.738281 230.460938 165.835938 C 230.460938 163.550781 228.601562 161.691406 226.316406 161.691406 C 224.03125 161.691406 222.171875 163.550781 222.171875 165.835938 C 222.171875 167.738281 223.460938 169.34375 225.210938 169.832031 L 225.210938 184.035156 L 216.945312 192.300781 L 210.316406 192.300781 L 210.316406 185.347656 C 210.316406 182.90625 208.328125 180.917969 205.886719 180.917969 L 202.464844 180.917969 L 202.464844 172.558594 L 208.011719 167.015625 L 208.011719 153.894531 C 209.894531 153.503906 211.316406 151.832031 211.316406 149.835938 C 211.316406 147.546875 209.457031 145.6875 207.171875 145.6875 C 204.886719 145.6875 203.027344 147.546875 203.027344 149.832031 Z M 191.269531 156.582031 C 191.269531 155.515625 192.136719 154.648438 193.199219 154.648438 C 194.265625 154.648438 195.132812 155.515625 195.132812 156.582031 C 195.132812 157.648438 194.265625 158.515625 193.199219 158.515625 C 192.136719 158.515625 191.269531 157.648438 191.269531 156.582031 Z M 182.121094 156.582031 C 182.121094 155.515625 182.988281 154.648438 184.050781 154.648438 C 185.117188 154.648438 185.984375 155.515625 185.984375 156.582031 C 185.984375 157.648438 185.117188 158.515625 184.050781 158.515625 C 182.988281 158.515625 182.121094 157.648438 182.121094 156.582031 Z M 168.417969 149.832031 C 168.417969 148.765625 169.285156 147.902344 170.347656 147.902344 C 171.414062 147.902344 172.28125 148.769531 172.28125 149.832031 C 172.28125 150.898438 171.414062 151.765625 170.347656 151.765625 C 169.285156 151.765625 168.417969 150.898438 168.417969 149.832031 Z M 149.003906 165.507812 C 149.003906 164.441406 149.871094 163.574219 150.9375 163.574219 C 152.003906 163.574219 152.871094 164.441406 152.871094 165.507812 C 152.871094 166.574219 152.003906 167.441406 150.9375 167.441406 C 149.871094 167.441406 149.003906 166.574219 149.003906 165.507812 Z M 146.496094 204.519531 C 145.429688 204.519531 144.5625 203.652344 144.5625 202.589844 C 144.5625 201.523438 145.429688 200.65625 146.496094 200.65625 C 147.5625 200.65625 148.429688 201.523438 148.429688 202.589844 C 148.429688 203.652344 147.5625 204.519531 146.496094 204.519531 Z M 230.757812 200.65625 C 231.824219 200.65625 232.691406 201.523438 232.691406 202.589844 C 232.691406 203.652344 231.824219 204.519531 230.757812 204.519531 C 229.691406 204.519531 228.824219 203.652344 228.824219 202.589844 C 228.824219 201.523438 229.691406 200.65625 230.757812 200.65625 Z M 224.382812 165.835938 C 224.382812 164.769531 225.25 163.902344 226.316406 163.902344 C 227.382812 163.902344 228.246094 164.769531 228.246094 165.835938 C 228.246094 166.902344 227.378906 167.769531 226.316406 167.769531 C 225.25 167.769531 224.382812 166.902344 224.382812 165.835938 Z M 214.316406 210.144531 C 214.40625 213.976562 215.855469 217.609375 218.460938 220.476562 C 221.328125 223.632812 225.25 225.480469 229.507812 225.683594 C 230.117188 225.710938 230.632812 225.242188 230.664062 224.632812 C 230.664062 224.613281 230.664062 224.597656 230.664062 224.578125 C 230.664062 223.992188 230.203125 223.503906 229.613281 223.472656 C 222.394531 223.128906 216.726562 217.25 216.527344 210.144531 L 217.675781 210.144531 C 227.667969 210.144531 235.800781 218.273438 235.800781 228.269531 C 235.800781 235.175781 231.960938 241.386719 225.78125 244.484375 L 225.582031 244.582031 C 222.320312 245.453125 218.894531 245.097656 215.855469 243.558594 C 212.582031 241.898438 210.148438 239.066406 209.003906 235.578125 C 208.816406 234.996094 208.191406 234.679688 207.609375 234.871094 C 207.03125 235.058594 206.714844 235.683594 206.902344 236.265625 C 208.230469 240.316406 211.054688 243.605469 214.855469 245.53125 C 218 247.125 221.503906 247.625 224.910156 247 C 223.300781 254.554688 216.609375 260.066406 208.722656 260.066406 C 207.339844 260.066406 205.964844 259.894531 204.640625 259.558594 L 204.132812 259.429688 L 203.710938 259.746094 C 199.6875 262.738281 194.902344 264.320312 189.875 264.320312 C 181.945312 264.320312 174.644531 260.332031 170.351562 253.648438 L 169.933594 252.996094 L 169.175781 253.167969 C 168.238281 253.378906 167.269531 253.488281 166.292969 253.488281 C 159.453125 253.488281 153.828125 248.195312 153.292969 241.492188 C 156.234375 241.925781 159.246094 241.527344 162.035156 240.296875 C 163.160156 239.800781 164.210938 239.1875 165.171875 238.46875 C 165.628906 241.953125 167.210938 245.171875 169.746094 247.6875 C 172.769531 250.691406 176.78125 252.339844 181.042969 252.324219 C 181.652344 252.324219 182.144531 251.828125 182.144531 251.21875 C 182.144531 251.21875 182.144531 251.21875 182.144531 251.214844 C 182.144531 250.605469 181.648438 250.113281 181.035156 250.113281 C 173.523438 250.136719 167.378906 244.097656 167.25 236.609375 C 168.625 235.136719 169.722656 233.402344 170.472656 231.46875 C 170.523438 231.339844 170.546875 231.203125 170.546875 231.070312 C 170.546875 230.628906 170.277344 230.210938 169.839844 230.039062 C 169.273438 229.820312 168.632812 230.101562 168.410156 230.671875 C 167.082031 234.09375 164.5 236.792969 161.140625 238.273438 C 158.253906 239.546875 155.085938 239.789062 152.082031 238.988281 C 145.804688 237.179688 141.453125 231.417969 141.453125 224.851562 C 141.453125 216.742188 148.050781 210.144531 156.160156 210.144531 L 159.117188 210.144531 C 160.691406 217.269531 156.375 224.464844 149.257812 226.375 C 148.667969 226.535156 148.316406 227.140625 148.476562 227.730469 C 148.632812 228.320312 149.238281 228.671875 149.828125 228.511719 C 153.945312 227.410156 157.386719 224.765625 159.515625 221.074219 C 160.933594 218.617188 161.65625 215.890625 161.65625 213.128906 C 161.65625 212.132812 161.5625 211.136719 161.375 210.144531 L 166.9375 210.144531 L 166.9375 219.867188 C 166.9375 222.308594 168.925781 224.292969 171.367188 224.292969 L 205.886719 224.292969 C 208.328125 224.292969 210.316406 222.308594 210.316406 219.867188 L 210.316406 210.144531 Z M 205.886719 183.128906 C 207.109375 183.128906 208.101562 184.125 208.101562 185.347656 L 208.101562 219.867188 C 208.101562 221.089844 207.109375 222.082031 205.886719 222.082031 L 171.367188 222.082031 C 170.144531 222.082031 169.148438 221.089844 169.148438 219.867188 L 169.148438 185.347656 C 169.148438 184.125 170.144531 183.128906 171.367188 183.128906 Z M 209.105469 149.832031 C 209.105469 150.898438 208.238281 151.765625 207.171875 151.765625 C 206.105469 151.765625 205.238281 150.898438 205.238281 149.832031 C 205.238281 148.765625 206.105469 147.902344 207.171875 147.902344 C 208.238281 147.902344 209.105469 148.769531 209.105469 149.832031 Z M 209.105469 149.832031 " fill-opacity="1" fill-rule="nonzero"/></g><g clip-path="url(#ba84ccc86f)"><g clip-path="url(#9d992c2f71)"><path stroke-linecap="butt" transform="matrix(0.75, 0, 0, 0.75, 90.701139, 175.405301)" fill="none" stroke-linejoin="miter" d="M 22.997441 0.00126496 L 235.122455 0.00126496 C 241.221413 0.00126496 247.070372 2.42314 251.382872 6.73564 C 255.695373 11.048141 258.122456 16.897099 258.122456 23.001266 L 258.122456 48.876268 C 258.122456 54.975227 255.695373 60.824186 251.382872 65.136686 C 247.070372 69.454395 241.221413 71.87627 235.122455 71.87627 L 22.997441 71.87627 C 16.898482 71.87627 11.049523 69.454395 6.737023 65.136686 C 2.424523 60.824186 -0.00256079 54.975227 -0.00256079 48.876268 L -0.00256079 23.001266 C -0.00256079 16.897099 2.424523 11.048141 6.737023 6.73564 C 11.049523 2.42314 16.898482 0.00126496 22.997441 0.00126496 Z M 22.997441 0.00126496 " stroke="url(#830e0f634e)" stroke-width="200" stroke-miterlimit="4"/></g></g><g clip-path="url(#994da88437)"><g clip-path="url(#70cb362ab9)"><g transform="matrix(1, 0, 0, 1, 132, 181)"><g clip-path="url(#ab94b186b8)"><g clip-path="url(#c61565676f)"><g clip-path="url(#0ec266a085)"><path fill="#ffffff" d="M 0.847656 0.769531 L 42.027344 0.769531 L 42.027344 41.949219 L 0.847656 41.949219 Z M 0.847656 0.769531 " fill-opacity="1" fill-rule="nonzero"/></g></g></g></g></g></g><g clip-path="url(#10bad827bc)"><g clip-path="url(#7de9bed2fe)"><g transform="matrix(1, 0, 0, 1, 202, 181)"><g clip-path="url(#96e7173e6e)"><g clip-path="url(#5f693e00c8)"><g clip-path="url(#78252eef97)"><path fill="#ffffff" d="M 0.683594 0.769531 L 41.863281 0.769531 L 41.863281 41.949219 L 0.683594 41.949219 Z M 0.683594 0.769531 " fill-opacity="1" fill-rule="nonzero"/></g></g></g></g></g></g></svg>